<?xml version="1.0" encoding="UTF-8" standalone="no"?>
<!-- Created with Inkscape (http://www.inkscape.org/) -->

<svg
   xmlns:dc="http://purl.org/dc/elements/1.1/"
   xmlns:cc="http://creativecommons.org/ns#"
   xmlns:rdf="http://www.w3.org/1999/02/22-rdf-syntax-ns#"
   xmlns:svg="http://www.w3.org/2000/svg"
   xmlns="http://www.w3.org/2000/svg"
   xmlns:sodipodi="http://sodipodi.sourceforge.net/DTD/sodipodi-0.dtd"
   xmlns:inkscape="http://www.inkscape.org/namespaces/inkscape"
   version="1.1"
   id="svg815"
   xml:space="preserve"
   width="800"
   height="800"
   viewBox="0 0 800 800"
   sodipodi:docname="Argentina-sticker-3-publicdomainvectors.org.svg"
   inkscape:version="0.92.4 (5da689c313, 2019-01-14)"><metadata
     id="metadata821"><rdf:RDF><cc:Work
         rdf:about=""><dc:format>image/svg+xml</dc:format><dc:type
           rdf:resource="http://purl.org/dc/dcmitype/StillImage" /><dc:title></dc:title></cc:Work></rdf:RDF></metadata><defs
     id="defs819"><clipPath
       clipPathUnits="userSpaceOnUse"
       id="clipPath831"><path
         d="M 0,600 H 600 V 0 H 0 Z"
         id="path829"
         inkscape:connector-curvature="0" /></clipPath><linearGradient
       x1="0"
       y1="0"
       x2="1"
       y2="0"
       gradientUnits="userSpaceOnUse"
       gradientTransform="matrix(42.613251,43.724487,-43.724487,42.613251,376.94238,394.30176)"
       spreadMethod="pad"
       id="linearGradient857"><stop
         style="stop-opacity:1;stop-color:#8e949a"
         offset="0"
         id="stop851" /><stop
         style="stop-opacity:1;stop-color:#ffffff"
         offset="0.5"
         id="stop853" /><stop
         style="stop-opacity:1;stop-color:#80878e"
         offset="1"
         id="stop855" /></linearGradient></defs><sodipodi:namedview
     pagecolor="#ffffff"
     bordercolor="#666666"
     borderopacity="1"
     objecttolerance="10"
     gridtolerance="10"
     guidetolerance="10"
     inkscape:pageopacity="0"
     inkscape:pageshadow="2"
     inkscape:window-width="1920"
     inkscape:window-height="1018"
     id="namedview817"
     showgrid="false"
     inkscape:zoom="1.06125"
     inkscape:cx="400"
     inkscape:cy="400"
     inkscape:window-x="-8"
     inkscape:window-y="-8"
     inkscape:window-maximized="1"
     inkscape:current-layer="g823" /><g
     id="g823"
     inkscape:groupmode="layer"
     inkscape:label="Argentina-sticker-3-publicdomainvectors.org"
     transform="matrix(1.3333333,0,0,-1.3333333,0,800)"><g
       id="g825"><g
         id="g827"
         clip-path="url(#clipPath831)"><path
           d="m 154.951,166.734 c 86.627,-84.401 225.264,-82.597 309.664,4.03 21.949,22.529 38.065,48.578 48.376,76.271 H 102.56 c 10.95,-29.418 28.415,-56.938 52.391,-80.301"
           style="fill:#74b5e3;fill-opacity:1;fill-rule:nonzero;stroke:none"
           id="path833"
           inkscape:connector-curvature="0" /><path
           d="M 150.923,476.399 C 128.613,453.5 112.332,426.966 102.043,398.762 H 458.512 L 310.94,542.54 c -58.046,0.83 -116.307,-21.284 -160.017,-66.141"
           style="fill:#74b5e3;fill-opacity:1;fill-rule:nonzero;stroke:none"
           id="path835"
           inkscape:connector-curvature="0" /><path
           d="m 102.56,247.035 h 410.431 c 10.226,27.458 14.748,56.537 13.582,85.417 l -68.061,66.31 H 102.043 C 84.183,349.8 84.405,295.807 102.56,247.035"
           style="fill:#ffffff;fill-opacity:1;fill-rule:nonzero;stroke:none"
           id="path837"
           inkscape:connector-curvature="0" /><g
           id="g839"><g
             id="g841"><g
               id="g847"><g
                 id="g849"><path
                   d="m 311.35,542.666 c 2.176,-53.994 24.225,-107.285 65.983,-147.977 41.762,-40.687 95.608,-61.337 149.636,-62.114"
                   style="fill:url(#linearGradient857);stroke:none"
                   id="path859"
                   inkscape:connector-curvature="0" /></g></g></g></g><path
           d="m 306.125,303.912 c -0.305,-8.33 4.818,-12.911 4.148,-20.349 -0.668,-7.44 3.418,-11.644 4.365,-14.536 0.948,-2.893 -1.025,-4.622 -0.175,-5.035 0.85,-0.411 2.713,1.875 2.104,5.987 -0.605,4.112 -3.727,5.333 -2.993,14.417 0.733,9.084 -3.716,11.201 -2.634,19.488 m -9.794,19.024 25.137,-54.767 c 0,0 0.433,-1.047 1.132,-0.759 0.697,0.288 0.265,1.336 0.265,1.336 l -20.951,56.502"
           style="fill:#efb418;fill-opacity:1;fill-rule:nonzero;stroke:none"
           id="path861"
           inkscape:connector-curvature="0" /><path
           d="m 306.125,303.912 c -0.305,-8.33 4.818,-12.911 4.148,-20.349 -0.668,-7.44 3.418,-11.644 4.365,-14.536 0.948,-2.893 -1.025,-4.622 -0.175,-5.035 0.85,-0.411 2.713,1.875 2.104,5.987 -0.605,4.112 -3.727,5.333 -2.993,14.417 0.733,9.084 -3.716,11.201 -2.634,19.488 m -9.794,19.024 25.137,-54.767 c 0,0 0.433,-1.047 1.132,-0.759 0.697,0.288 0.265,1.336 0.265,1.336 l -20.951,56.502"
           style="fill:none;stroke:#8d4823;stroke-width:1.11199999;stroke-linecap:butt;stroke-linejoin:miter;stroke-miterlimit:4;stroke-dasharray:none;stroke-opacity:1"
           id="path863"
           inkscape:connector-curvature="0" /><path
           d="m 298.248,304.607 c -3.471,-7.579 -0.491,-13.771 -3.956,-20.386 -3.464,-6.617 -1.299,-12.064 -1.531,-15.099 -0.231,-3.035 -2.716,-3.878 -2.089,-4.584 0.63,-0.706 3.224,0.692 4.236,4.724 1.013,4.032 -1.403,6.354 2.751,14.467 4.155,8.112 0.854,11.77 5.027,19.012 m -1.771,21.323 2.267,-60.218 c 0,0 -0.001,-1.132 0.754,-1.133 0.756,0 0.754,1.133 0.754,1.133 l 2.267,60.218"
           style="fill:#efb418;fill-opacity:1;fill-rule:nonzero;stroke:none"
           id="path865"
           inkscape:connector-curvature="0" /><path
           d="m 298.248,304.607 c -3.471,-7.579 -0.491,-13.771 -3.956,-20.386 -3.464,-6.617 -1.299,-12.064 -1.531,-15.099 -0.231,-3.035 -2.716,-3.878 -2.089,-4.584 0.63,-0.706 3.224,0.692 4.236,4.724 1.013,4.032 -1.403,6.354 2.751,14.467 4.155,8.112 0.854,11.77 5.027,19.012 m -1.771,21.323 2.267,-60.218 c 0,0 -0.001,-1.132 0.754,-1.133 0.756,0 0.754,1.133 0.754,1.133 l 2.267,60.218"
           style="fill:none;stroke:#8d4823;stroke-width:1.11199999;stroke-linecap:butt;stroke-linejoin:miter;stroke-miterlimit:4;stroke-dasharray:none;stroke-opacity:1"
           id="path867"
           inkscape:connector-curvature="0" /><path
           d="m 291.235,308.267 c -6.107,-5.674 -5.722,-12.536 -11.456,-17.321 -5.733,-4.788 -5.818,-10.649 -7.194,-13.366 -1.374,-2.715 -3.992,-2.543 -3.683,-3.435 0.31,-0.894 3.243,-0.593 5.722,2.744 2.479,3.336 1.134,6.408 8.077,12.313 6.943,5.906 5.293,10.548 11.918,15.64 m 6.527,20.379 -20.952,-56.502 c 0,0 -0.435,-1.046 0.263,-1.336 0.697,-0.289 1.131,0.758 1.131,0.758 l 25.139,54.769"
           style="fill:#efb418;fill-opacity:1;fill-rule:nonzero;stroke:none"
           id="path869"
           inkscape:connector-curvature="0" /><path
           d="m 291.235,308.267 c -6.107,-5.674 -5.722,-12.536 -11.456,-17.321 -5.733,-4.788 -5.818,-10.649 -7.194,-13.366 -1.374,-2.715 -3.992,-2.543 -3.683,-3.435 0.31,-0.894 3.243,-0.593 5.722,2.744 2.479,3.336 1.134,6.408 8.077,12.313 6.943,5.906 5.293,10.548 11.918,15.64 m 6.527,20.379 -20.952,-56.502 c 0,0 -0.435,-1.046 0.263,-1.336 0.697,-0.289 1.131,0.758 1.131,0.758 l 25.139,54.769"
           style="fill:none;stroke:#8d4823;stroke-width:1.11199999;stroke-linecap:butt;stroke-linejoin:miter;stroke-miterlimit:4;stroke-dasharray:none;stroke-opacity:1"
           id="path871"
           inkscape:connector-curvature="0" /><path
           d="m 286.155,314.33 c -7.812,-2.905 -10.083,-9.39 -17.212,-11.618 -7.128,-2.231 -9.45,-7.612 -11.76,-9.595 -2.309,-1.983 -4.662,-0.822 -4.717,-1.764 -0.055,-0.944 2.768,-1.79 6.336,0.345 3.567,2.135 3.5,5.486 12.174,8.284 8.673,2.799 8.925,7.72 16.996,9.89 m 13.828,16.329 -40.978,-44.182 c 0,0 -0.802,-0.801 -0.269,-1.335 0.534,-0.535 1.334,0.267 1.334,0.267 l 44.185,40.979"
           style="fill:#efb418;fill-opacity:1;fill-rule:nonzero;stroke:none"
           id="path873"
           inkscape:connector-curvature="0" /><path
           d="m 286.155,314.33 c -7.812,-2.905 -10.083,-9.39 -17.212,-11.618 -7.128,-2.231 -9.45,-7.612 -11.76,-9.595 -2.309,-1.983 -4.662,-0.822 -4.717,-1.764 -0.055,-0.944 2.768,-1.79 6.336,0.345 3.567,2.135 3.5,5.486 12.174,8.284 8.673,2.799 8.925,7.72 16.996,9.89 m 13.828,16.329 -40.978,-44.182 c 0,0 -0.802,-0.801 -0.269,-1.335 0.534,-0.535 1.334,0.267 1.334,0.267 l 44.185,40.979"
           style="fill:none;stroke:#8d4823;stroke-width:1.11199999;stroke-linecap:butt;stroke-linejoin:miter;stroke-miterlimit:4;stroke-dasharray:none;stroke-opacity:1"
           id="path875"
           inkscape:connector-curvature="0" /><path
           d="m 302.542,323.406 17.215,-37.616 -14.425,38.773 m 2.413,-22.063 c 0.401,-7.999 4.937,-11.54 4.045,-18.829 1.955,5.765 -2.758,10.232 -2.491,18.747"
           style="fill:#8d4823;fill-opacity:1;fill-rule:nonzero;stroke:none"
           id="path877"
           inkscape:connector-curvature="0" /><path
           d="m 302.395,323.99 1.512,-41.34 1.509,41.341 m -6.213,-21.307 c -2.691,-7.541 0.142,-12.55 -3.47,-18.944 4.013,4.578 1.368,10.51 4.874,18.274"
           style="fill:#8d4823;fill-opacity:1;fill-rule:nonzero;stroke:none"
           id="path879"
           inkscape:connector-curvature="0" /><path
           d="m 302.483,324.586 -14.424,-38.772 17.216,37.618 M 291.38,306.124 c -5.371,-5.939 -4.669,-11.65 -10.454,-16.176 5.46,2.695 5.285,9.187 11.494,15.019"
           style="fill:#8d4823;fill-opacity:1;fill-rule:nonzero;stroke:none"
           id="path881"
           inkscape:connector-curvature="0" /><path
           d="m 302.794,325.103 -28.165,-30.301 30.302,28.165 m -19.46,-10.672 c -7.236,-3.431 -8.774,-8.976 -15.848,-10.942 6.073,0.398 8.397,6.463 16.366,9.476"
           style="fill:#8d4823;fill-opacity:1;fill-rule:nonzero;stroke:none"
           id="path883"
           inkscape:connector-curvature="0" /><path
           d="m 283.783,321.877 c -8.33,0.306 -12.909,-4.818 -20.348,-4.148 -7.437,0.669 -11.644,-3.416 -14.536,-4.365 -2.893,-0.947 -4.623,1.027 -5.034,0.177 -0.413,-0.852 1.873,-2.712 5.986,-2.105 4.112,0.604 5.333,3.727 14.418,2.994 9.085,-0.734 11.201,3.716 19.486,2.633 m 19.025,9.794 -54.767,-25.138 c 0,0 -1.047,-0.432 -0.759,-1.131 0.289,-0.697 1.335,-0.264 1.335,-0.264 l 56.504,20.951"
           style="fill:#efb418;fill-opacity:1;fill-rule:nonzero;stroke:none"
           id="path885"
           inkscape:connector-curvature="0" /><path
           d="m 283.783,321.877 c -8.33,0.306 -12.909,-4.818 -20.348,-4.148 -7.437,0.669 -11.644,-3.416 -14.536,-4.365 -2.893,-0.947 -4.623,1.027 -5.034,0.177 -0.413,-0.852 1.873,-2.712 5.986,-2.105 4.112,0.604 5.333,3.727 14.418,2.994 9.085,-0.734 11.201,3.716 19.486,2.633 m 19.025,9.794 -54.767,-25.138 c 0,0 -1.047,-0.432 -0.759,-1.131 0.289,-0.697 1.335,-0.264 1.335,-0.264 l 56.504,20.951"
           style="fill:none;stroke:#8d4823;stroke-width:1.11199999;stroke-linecap:butt;stroke-linejoin:miter;stroke-miterlimit:4;stroke-dasharray:none;stroke-opacity:1"
           id="path887"
           inkscape:connector-curvature="0" /><path
           d="m 284.48,329.756 c -7.579,3.47 -13.771,0.49 -20.386,3.955 -6.617,3.464 -12.066,1.3 -15.099,1.531 -3.037,0.232 -3.88,2.716 -4.585,2.089 -0.706,-0.629 0.693,-3.223 4.725,-4.237 4.031,-1.013 6.354,1.404 14.466,-2.75 8.112,-4.155 11.771,-0.854 19.011,-5.026 m 21.325,1.77 -60.219,-2.266 c 0,0 -1.133,0 -1.133,-0.755 0,-0.755 1.132,-0.754 1.132,-0.754 l 60.22,-2.267"
           style="fill:#efb418;fill-opacity:1;fill-rule:nonzero;stroke:none"
           id="path889"
           inkscape:connector-curvature="0" /><path
           d="m 284.48,329.756 c -7.579,3.47 -13.771,0.49 -20.386,3.955 -6.617,3.464 -12.066,1.3 -15.099,1.531 -3.037,0.232 -3.88,2.716 -4.585,2.089 -0.706,-0.629 0.693,-3.223 4.725,-4.237 4.031,-1.013 6.354,1.404 14.466,-2.75 8.112,-4.155 11.771,-0.854 19.011,-5.026 m 21.325,1.77 -60.219,-2.266 c 0,0 -1.133,0 -1.133,-0.755 0,-0.755 1.132,-0.754 1.132,-0.754 l 60.22,-2.267"
           style="fill:none;stroke:#8d4823;stroke-width:1.11199999;stroke-linecap:butt;stroke-linejoin:miter;stroke-miterlimit:4;stroke-dasharray:none;stroke-opacity:1"
           id="path891"
           inkscape:connector-curvature="0" /><path
           d="m 288.139,336.769 c -5.673,6.106 -12.536,5.722 -17.321,11.456 -4.787,5.733 -10.65,5.817 -13.365,7.193 -2.716,1.375 -2.544,3.994 -3.436,3.682 -0.893,-0.309 -0.593,-3.242 2.744,-5.721 3.337,-2.479 6.408,-1.134 12.313,-8.078 5.905,-6.941 10.547,-5.292 15.641,-11.917 m 20.379,-6.527 -56.502,20.952 c 0,0 -1.046,0.435 -1.337,-0.264 -0.288,-0.697 0.758,-1.13 0.758,-1.13 l 54.769,-25.139"
           style="fill:#efb418;fill-opacity:1;fill-rule:nonzero;stroke:none"
           id="path893"
           inkscape:connector-curvature="0" /><path
           d="m 288.139,336.769 c -5.673,6.106 -12.536,5.722 -17.321,11.456 -4.787,5.733 -10.65,5.817 -13.365,7.193 -2.716,1.375 -2.544,3.994 -3.436,3.682 -0.893,-0.309 -0.593,-3.242 2.744,-5.721 3.337,-2.479 6.408,-1.134 12.313,-8.078 5.905,-6.941 10.547,-5.292 15.641,-11.917 m 20.379,-6.527 -56.502,20.952 c 0,0 -1.046,0.435 -1.337,-0.264 -0.288,-0.697 0.758,-1.13 0.758,-1.13 l 54.769,-25.139"
           style="fill:none;stroke:#8d4823;stroke-width:1.11199999;stroke-linecap:butt;stroke-linejoin:miter;stroke-miterlimit:4;stroke-dasharray:none;stroke-opacity:1"
           id="path895"
           inkscape:connector-curvature="0" /><path
           d="m 294.202,341.848 c -2.903,7.812 -9.39,10.084 -11.618,17.212 -2.229,7.128 -7.613,9.449 -9.594,11.759 -1.983,2.31 -0.823,4.663 -1.766,4.719 -0.943,0.055 -1.788,-2.769 0.346,-6.336 2.134,-3.568 5.487,-3.5 8.285,-12.175 2.798,-8.674 7.718,-8.926 9.889,-16.996 m 16.329,-13.829 -44.182,40.98 c 0,0 -0.801,0.801 -1.335,0.267 -0.535,-0.533 0.267,-1.334 0.267,-1.334 l 40.979,-44.184"
           style="fill:#efb418;fill-opacity:1;fill-rule:nonzero;stroke:none"
           id="path897"
           inkscape:connector-curvature="0" /><path
           d="m 294.202,341.848 c -2.903,7.812 -9.39,10.084 -11.618,17.212 -2.229,7.128 -7.613,9.449 -9.594,11.759 -1.983,2.31 -0.823,4.663 -1.766,4.719 -0.943,0.055 -1.788,-2.769 0.346,-6.336 2.134,-3.568 5.487,-3.5 8.285,-12.175 2.798,-8.674 7.718,-8.926 9.889,-16.996 m 16.329,-13.829 -44.182,40.98 c 0,0 -0.801,0.801 -1.335,0.267 -0.535,-0.533 0.267,-1.334 0.267,-1.334 l 40.979,-44.184"
           style="fill:none;stroke:#8d4823;stroke-width:1.11199999;stroke-linecap:butt;stroke-linejoin:miter;stroke-miterlimit:4;stroke-dasharray:none;stroke-opacity:1"
           id="path899"
           inkscape:connector-curvature="0" /><path
           d="m 303.277,325.461 -37.614,-17.215 38.772,14.426 m -22.063,-2.414 c -7.998,-0.401 -11.54,-4.935 -18.829,-4.046 5.764,-1.955 10.233,2.76 18.746,2.492"
           style="fill:#8d4823;fill-opacity:1;fill-rule:nonzero;stroke:none"
           id="path901"
           inkscape:connector-curvature="0" /><path
           d="m 303.861,325.608 -41.339,-1.511 41.341,-1.509 m -21.306,6.212 c -7.543,2.691 -12.551,-0.144 -18.945,3.469 4.577,-4.013 10.51,-1.367 18.274,-4.872"
           style="fill:#8d4823;fill-opacity:1;fill-rule:nonzero;stroke:none"
           id="path903"
           inkscape:connector-curvature="0" /><path
           d="m 304.459,325.52 -38.772,14.423 37.617,-17.215 m -17.309,13.894 c -5.938,5.373 -11.649,4.67 -16.174,10.454 2.693,-5.458 9.188,-5.284 15.018,-11.494"
           style="fill:#8d4823;fill-opacity:1;fill-rule:nonzero;stroke:none"
           id="path905"
           inkscape:connector-curvature="0" /><path
           d="m 304.975,325.209 -30.3,28.164 28.166,-30.3 m -10.674,19.459 c -3.431,7.237 -8.976,8.773 -10.944,15.849 0.4,-6.074 6.466,-8.398 9.476,-16.367"
           style="fill:#8d4823;fill-opacity:1;fill-rule:nonzero;stroke:none"
           id="path907"
           inkscape:connector-curvature="0" /><path
           d="m 301.749,344.219 c 0.306,8.329 -4.817,12.911 -4.147,20.348 0.669,7.44 -3.417,11.644 -4.365,14.537 -0.948,2.893 1.025,4.623 0.175,5.034 -0.85,0.412 -2.712,-1.873 -2.105,-5.987 0.606,-4.111 3.729,-5.332 2.995,-14.417 -0.734,-9.084 3.716,-11.2 2.633,-19.487 m 9.795,-19.025 -25.139,54.768 c 0,0 -0.432,1.047 -1.131,0.759 -0.698,-0.289 -0.264,-1.335 -0.264,-1.335 l 20.951,-56.503"
           style="fill:#efb418;fill-opacity:1;fill-rule:nonzero;stroke:none"
           id="path909"
           inkscape:connector-curvature="0" /><path
           d="m 301.749,344.219 c 0.306,8.329 -4.817,12.911 -4.147,20.348 0.669,7.44 -3.417,11.644 -4.365,14.537 -0.948,2.893 1.025,4.623 0.175,5.034 -0.85,0.412 -2.712,-1.873 -2.105,-5.987 0.606,-4.111 3.729,-5.332 2.995,-14.417 -0.734,-9.084 3.716,-11.2 2.633,-19.487 m 9.795,-19.025 -25.139,54.768 c 0,0 -0.432,1.047 -1.131,0.759 -0.698,-0.289 -0.264,-1.335 -0.264,-1.335 l 20.951,-56.503"
           style="fill:none;stroke:#8d4823;stroke-width:1.11199999;stroke-linecap:butt;stroke-linejoin:miter;stroke-miterlimit:4;stroke-dasharray:none;stroke-opacity:1"
           id="path911"
           inkscape:connector-curvature="0" /><path
           d="m 309.627,343.523 c 3.472,7.579 0.491,13.771 3.956,20.386 3.465,6.617 1.3,12.066 1.532,15.101 0.232,3.035 2.714,3.879 2.088,4.583 -0.629,0.706 -3.223,-0.693 -4.236,-4.724 -1.014,-4.031 1.403,-6.354 -2.751,-14.467 -4.155,-8.112 -0.854,-11.77 -5.026,-19.012 m 1.77,-21.323 -2.267,60.218 c 0,0 0.001,1.132 -0.754,1.134 -0.754,0 -0.754,-1.133 -0.754,-1.133 l -2.267,-60.219"
           style="fill:#efb418;fill-opacity:1;fill-rule:nonzero;stroke:none"
           id="path913"
           inkscape:connector-curvature="0" /><path
           d="m 309.627,343.523 c 3.472,7.579 0.491,13.771 3.956,20.386 3.465,6.617 1.3,12.066 1.532,15.101 0.232,3.035 2.714,3.879 2.088,4.583 -0.629,0.706 -3.223,-0.693 -4.236,-4.724 -1.014,-4.031 1.403,-6.354 -2.751,-14.467 -4.155,-8.112 -0.854,-11.77 -5.026,-19.012 m 1.77,-21.323 -2.267,60.218 c 0,0 0.001,1.132 -0.754,1.134 -0.754,0 -0.754,-1.133 -0.754,-1.133 l -2.267,-60.219"
           style="fill:none;stroke:#8d4823;stroke-width:1.11199999;stroke-linecap:butt;stroke-linejoin:miter;stroke-miterlimit:4;stroke-dasharray:none;stroke-opacity:1"
           id="path915"
           inkscape:connector-curvature="0" /><path
           d="m 316.641,339.865 c 6.105,5.673 5.723,12.535 11.456,17.32 5.733,4.786 5.816,10.65 7.194,13.365 1.372,2.715 3.992,2.545 3.681,3.436 -0.309,0.893 -3.242,0.593 -5.721,-2.744 -2.479,-3.337 -1.134,-6.407 -8.077,-12.312 -6.942,-5.907 -5.293,-10.549 -11.917,-15.642 m -6.527,-20.378 20.952,56.502 c 0,0 0.434,1.046 -0.264,1.336 -0.698,0.289 -1.13,-0.758 -1.13,-0.758 l -25.14,-54.769"
           style="fill:#efb418;fill-opacity:1;fill-rule:nonzero;stroke:none"
           id="path917"
           inkscape:connector-curvature="0" /><path
           d="m 316.641,339.865 c 6.105,5.673 5.723,12.535 11.456,17.32 5.733,4.786 5.816,10.65 7.194,13.365 1.372,2.715 3.992,2.545 3.681,3.436 -0.309,0.893 -3.242,0.593 -5.721,-2.744 -2.479,-3.337 -1.134,-6.407 -8.077,-12.312 -6.942,-5.907 -5.293,-10.549 -11.917,-15.642 m -6.527,-20.378 20.952,56.502 c 0,0 0.434,1.046 -0.264,1.336 -0.698,0.289 -1.13,-0.758 -1.13,-0.758 l -25.14,-54.769"
           style="fill:none;stroke:#8d4823;stroke-width:1.11199999;stroke-linecap:butt;stroke-linejoin:miter;stroke-miterlimit:4;stroke-dasharray:none;stroke-opacity:1"
           id="path919"
           inkscape:connector-curvature="0" /><path
           d="m 321.721,333.801 c 7.811,2.905 10.084,9.391 17.211,11.617 7.13,2.231 9.449,7.613 11.76,9.595 2.309,1.983 4.663,0.823 4.716,1.766 0.057,0.943 -2.766,1.788 -6.335,-0.345 -3.566,-2.134 -3.499,-5.486 -12.175,-8.286 -8.672,-2.798 -8.924,-7.719 -16.996,-9.89 m -13.827,-16.328 40.979,44.182 c 0,0 0.801,0.801 0.267,1.335 -0.533,0.534 -1.334,-0.267 -1.334,-0.267 l -44.184,-40.979"
           style="fill:#efb418;fill-opacity:1;fill-rule:nonzero;stroke:none"
           id="path921"
           inkscape:connector-curvature="0" /><path
           d="m 321.721,333.801 c 7.811,2.905 10.084,9.391 17.211,11.617 7.13,2.231 9.449,7.613 11.76,9.595 2.309,1.983 4.663,0.823 4.716,1.766 0.057,0.943 -2.766,1.788 -6.335,-0.345 -3.566,-2.134 -3.499,-5.486 -12.175,-8.286 -8.672,-2.798 -8.924,-7.719 -16.996,-9.89 m -13.827,-16.328 40.979,44.182 c 0,0 0.801,0.801 0.267,1.335 -0.533,0.534 -1.334,-0.267 -1.334,-0.267 l -44.184,-40.979"
           style="fill:none;stroke:#8d4823;stroke-width:1.11199999;stroke-linecap:butt;stroke-linejoin:miter;stroke-miterlimit:4;stroke-dasharray:none;stroke-opacity:1"
           id="path923"
           inkscape:connector-curvature="0" /><path
           d="m 305.334,324.726 -17.216,37.615 14.425,-38.773 m -2.413,22.063 c -0.401,7.998 -4.936,11.54 -4.045,18.829 -1.956,-5.763 2.759,-10.232 2.491,-18.747"
           style="fill:#8d4823;fill-opacity:1;fill-rule:nonzero;stroke:none"
           id="path925"
           inkscape:connector-curvature="0" /><path
           d="m 305.48,324.141 -1.511,41.339 -1.509,-41.341 m 6.212,21.307 c 2.691,7.544 -0.143,12.552 3.47,18.944 -4.013,-4.576 -1.368,-10.509 -4.874,-18.273"
           style="fill:#8d4823;fill-opacity:1;fill-rule:nonzero;stroke:none"
           id="path927"
           inkscape:connector-curvature="0" /><path
           d="M 305.392,323.545 319.815,362.316 302.6,324.7 m 13.893,17.307 c 5.374,5.939 4.672,11.65 10.457,16.175 -5.46,-2.694 -5.287,-9.187 -11.495,-15.018"
           style="fill:#8d4823;fill-opacity:1;fill-rule:nonzero;stroke:none"
           id="path929"
           inkscape:connector-curvature="0" /><path
           d="m 305.082,323.028 28.164,30.3 -30.301,-28.165 m 19.459,10.673 c 7.237,3.432 8.773,8.976 15.848,10.943 -6.073,-0.4 -8.398,-6.466 -16.365,-9.475"
           style="fill:#8d4823;fill-opacity:1;fill-rule:nonzero;stroke:none"
           id="path931"
           inkscape:connector-curvature="0" /><path
           d="m 324.092,326.254 c 8.33,-0.306 12.91,4.818 20.347,4.148 7.44,-0.67 11.645,3.416 14.537,4.364 2.892,0.949 4.624,-1.025 5.035,-0.176 0.413,0.851 -1.874,2.714 -5.989,2.105 -4.11,-0.605 -5.332,-3.727 -14.417,-2.993 -9.083,0.733 -11.2,-3.717 -19.486,-2.633 m -19.024,-9.795 54.768,25.137 c 0,0 1.045,0.434 0.757,1.131 -0.288,0.699 -1.333,0.265 -1.333,0.265 l -56.504,-20.952"
           style="fill:#efb418;fill-opacity:1;fill-rule:nonzero;stroke:none"
           id="path933"
           inkscape:connector-curvature="0" /><path
           d="m 324.092,326.254 c 8.33,-0.306 12.91,4.818 20.347,4.148 7.44,-0.67 11.645,3.416 14.537,4.364 2.892,0.949 4.624,-1.025 5.035,-0.176 0.413,0.851 -1.874,2.714 -5.989,2.105 -4.11,-0.605 -5.332,-3.727 -14.417,-2.993 -9.083,0.733 -11.2,-3.717 -19.486,-2.633 m -19.024,-9.795 54.768,25.137 c 0,0 1.045,0.434 0.757,1.131 -0.288,0.699 -1.333,0.265 -1.333,0.265 l -56.504,-20.952"
           style="fill:none;stroke:#8d4823;stroke-width:1.11199999;stroke-linecap:butt;stroke-linejoin:miter;stroke-miterlimit:4;stroke-dasharray:none;stroke-opacity:1"
           id="path935"
           inkscape:connector-curvature="0" /><path
           d="m 323.395,318.375 c 7.579,-3.47 13.772,-0.49 20.386,-3.955 6.617,-3.465 12.066,-1.299 15.099,-1.532 3.039,-0.23 3.881,-2.715 4.587,-2.088 0.706,0.63 -0.695,3.223 -4.727,4.237 -4.03,1.014 -6.354,-1.404 -14.465,2.751 -8.114,4.153 -11.769,0.853 -19.011,5.025 m -21.326,-1.771 60.22,2.268 c 0,0 1.132,-10e-4 1.132,0.753 0,0.756 -1.132,0.756 -1.132,0.756 l -60.22,2.265"
           style="fill:#efb418;fill-opacity:1;fill-rule:nonzero;stroke:none"
           id="path937"
           inkscape:connector-curvature="0" /><path
           d="m 323.395,318.375 c 7.579,-3.47 13.772,-0.49 20.386,-3.955 6.617,-3.465 12.066,-1.299 15.099,-1.532 3.039,-0.23 3.881,-2.715 4.587,-2.088 0.706,0.63 -0.695,3.223 -4.727,4.237 -4.03,1.014 -6.354,-1.404 -14.465,2.751 -8.114,4.153 -11.769,0.853 -19.011,5.025 m -21.326,-1.771 60.22,2.268 c 0,0 1.132,-10e-4 1.132,0.753 0,0.756 -1.132,0.756 -1.132,0.756 l -60.22,2.265"
           style="fill:none;stroke:#8d4823;stroke-width:1.11199999;stroke-linecap:butt;stroke-linejoin:miter;stroke-miterlimit:4;stroke-dasharray:none;stroke-opacity:1"
           id="path939"
           inkscape:connector-curvature="0" /><path
           d="m 319.737,311.362 c 5.675,-6.105 12.535,-5.722 17.322,-11.456 4.784,-5.733 10.648,-5.817 13.363,-7.192 2.716,-1.375 2.545,-3.993 3.435,-3.684 0.894,0.311 0.593,3.243 -2.742,5.722 -3.337,2.479 -6.409,1.134 -12.313,8.078 -5.905,6.941 -10.548,5.293 -15.642,11.917 m -20.378,6.526 56.502,-20.951 c 0,0 1.045,-0.434 1.335,0.263 0.289,0.699 -0.756,1.131 -0.756,1.131 l -54.769,25.139"
           style="fill:#efb418;fill-opacity:1;fill-rule:nonzero;stroke:none"
           id="path941"
           inkscape:connector-curvature="0" /><path
           d="m 319.737,311.362 c 5.675,-6.105 12.535,-5.722 17.322,-11.456 4.784,-5.733 10.648,-5.817 13.363,-7.192 2.716,-1.375 2.545,-3.993 3.435,-3.684 0.894,0.311 0.593,3.243 -2.742,5.722 -3.337,2.479 -6.409,1.134 -12.313,8.078 -5.905,6.941 -10.548,5.293 -15.642,11.917 m -20.378,6.526 56.502,-20.951 c 0,0 1.045,-0.434 1.335,0.263 0.289,0.699 -0.756,1.131 -0.756,1.131 l -54.769,25.139"
           style="fill:none;stroke:#8d4823;stroke-width:1.11199999;stroke-linecap:butt;stroke-linejoin:miter;stroke-miterlimit:4;stroke-dasharray:none;stroke-opacity:1"
           id="path943"
           inkscape:connector-curvature="0" /><path
           d="m 313.673,306.282 c 2.904,-7.812 9.39,-10.083 11.618,-17.212 2.23,-7.128 7.613,-9.449 9.594,-11.759 1.984,-2.309 0.823,-4.663 1.767,-4.717 0.942,-0.056 1.786,2.767 -0.347,6.335 -2.134,3.567 -5.487,3.501 -8.284,12.175 -2.799,8.673 -7.719,8.925 -9.889,16.997 m -16.33,13.828 44.182,-40.98 c 0,0 0.801,-0.803 1.335,-0.267 0.535,0.534 -0.266,1.334 -0.266,1.334 l -40.98,44.184"
           style="fill:#efb418;fill-opacity:1;fill-rule:nonzero;stroke:none"
           id="path945"
           inkscape:connector-curvature="0" /><path
           d="m 313.673,306.282 c 2.904,-7.812 9.39,-10.083 11.618,-17.212 2.23,-7.128 7.613,-9.449 9.594,-11.759 1.984,-2.309 0.823,-4.663 1.767,-4.717 0.942,-0.056 1.786,2.767 -0.347,6.335 -2.134,3.567 -5.487,3.501 -8.284,12.175 -2.799,8.673 -7.719,8.925 -9.889,16.997 m -16.33,13.828 44.182,-40.98 c 0,0 0.801,-0.803 1.335,-0.267 0.535,0.534 -0.266,1.334 -0.266,1.334 l -40.98,44.184"
           style="fill:none;stroke:#8d4823;stroke-width:1.11199999;stroke-linecap:butt;stroke-linejoin:miter;stroke-miterlimit:4;stroke-dasharray:none;stroke-opacity:1"
           id="path947"
           inkscape:connector-curvature="0" /><path
           d="m 304.598,322.669 37.616,17.217 -38.774,-14.426 m 22.063,2.413 c 7.998,0.401 11.541,4.936 18.83,4.045 -5.765,1.957 -10.234,-2.759 -18.747,-2.491"
           style="fill:#8d4823;fill-opacity:1;fill-rule:nonzero;stroke:none"
           id="path949"
           inkscape:connector-curvature="0" /><path
           d="m 304.014,322.523 41.339,1.511 -41.341,1.51 m 21.306,-6.214 c 7.543,-2.69 12.552,0.144 18.946,-3.468 -4.578,4.013 -10.511,1.367 -18.275,4.872"
           style="fill:#8d4823;fill-opacity:1;fill-rule:nonzero;stroke:none"
           id="path951"
           inkscape:connector-curvature="0" /><path
           d="m 303.417,322.611 38.771,-14.423 -37.617,17.215 m 17.309,-13.894 c 5.937,-5.374 11.65,-4.671 16.174,-10.455 -2.693,5.459 -9.187,5.286 -15.017,11.495"
           style="fill:#8d4823;fill-opacity:1;fill-rule:nonzero;stroke:none"
           id="path953"
           inkscape:connector-curvature="0" /><path
           d="m 302.9,322.921 30.301,-28.163 -28.166,30.301 m 10.672,-19.46 c 3.432,-7.237 8.978,-8.773 10.943,-15.848 -0.398,6.072 -6.463,8.396 -9.474,16.365"
           style="fill:#8d4823;fill-opacity:1;fill-rule:nonzero;stroke:none"
           id="path955"
           inkscape:connector-curvature="0" /><path
           d="m 303.938,348.605 c 13.553,0 24.541,-10.985 24.541,-24.54 0,-13.554 -10.988,-24.54 -24.541,-24.54 -13.554,0 -24.541,10.986 -24.541,24.54 0,13.555 10.987,24.54 24.541,24.54"
           style="fill:#efb418;fill-opacity:1;fill-rule:nonzero;stroke:none"
           id="path957"
           inkscape:connector-curvature="0" /><path
           d="m 303.938,348.605 c 13.553,0 24.541,-10.985 24.541,-24.54 0,-13.554 -10.988,-24.54 -24.541,-24.54 -13.554,0 -24.541,10.986 -24.541,24.54 0,13.555 10.987,24.54 24.541,24.54 z"
           style="fill:none;stroke:#8d4823;stroke-width:1.5;stroke-linecap:butt;stroke-linejoin:miter;stroke-miterlimit:4;stroke-dasharray:none;stroke-opacity:1"
           id="path959"
           inkscape:connector-curvature="0" /><path
           d="m 312.276,328.926 c 1.631,0.03 3.157,-0.719 3.368,-1.463 -1.888,-2.076 -4.903,-1.895 -6.791,-0.386 0.827,1.321 2.155,1.826 3.423,1.849 m 0.029,0.387 c -1.677,0 -3.282,-0.726 -4.225,-2.236 1.887,-1.699 6.058,-1.883 8.889,0.194 -1.227,1.32 -2.99,2.042 -4.664,2.042"
           style="fill:#8b4928;fill-opacity:1;fill-rule:nonzero;stroke:none"
           id="path961"
           inkscape:connector-curvature="0" /><path
           d="m 312.623,330.479 c -2.455,0 -3.021,-0.567 -4.154,-1.51 -1.134,-0.944 -1.699,-0.754 -1.888,-0.944 -0.187,-0.189 0,-0.754 0.377,-0.566 0.377,0.189 1.134,0.566 2.266,1.51 1.132,0.945 2.263,0.944 3.399,0.944 3.396,0 5.283,-2.831 5.661,-2.642 0.376,0.188 -1.888,3.208 -5.661,3.208"
           style="fill:#8d4823;fill-opacity:1;fill-rule:nonzero;stroke:none"
           id="path963"
           inkscape:connector-curvature="0" /><path
           d="m 319.415,329.349 c -4.341,3.775 -9.813,4.341 -12.835,1.509 -0.741,-0.99 -1.214,-2.049 -1.409,-3.152 -0.379,-2.151 0.292,-4.474 1.975,-6.853 -0.189,10e-4 -0.566,-0.188 -0.756,-0.378 -1.498,2.866 -2.029,5.81 -1.536,8.61 0.128,0.732 0.33,1.451 0.59,2.152 4.155,3.397 9.817,3.775 13.97,-1.888 z"
           style="fill:#8d4823;fill-opacity:1;fill-rule:nonzero;stroke:none"
           id="path965"
           inkscape:connector-curvature="0" /><path
           d="m 312.245,329.166 c 0.937,0 1.698,-0.761 1.698,-1.699 0,-0.939 -0.761,-1.699 -1.698,-1.699 -0.939,0 -1.7,0.76 -1.7,1.699 0,0.938 0.761,1.699 1.7,1.699"
           style="fill:#8d4823;fill-opacity:1;fill-rule:nonzero;stroke:none"
           id="path967"
           inkscape:connector-curvature="0" /><path
           d="m 317.153,326.327 c -3.208,-2.454 -6.418,-2.266 -8.304,-1.133 -1.888,1.133 -1.888,1.509 -1.511,1.509 0.377,0 0.753,-0.376 2.264,-1.13 1.509,-0.757 3.776,-0.757 7.549,0.754 z"
           style="fill:#8d4823;fill-opacity:1;fill-rule:nonzero;stroke:none"
           id="path969"
           inkscape:connector-curvature="0" /><path
           d="m 300.184,320.673 c -0.808,-0.147 -1.382,-0.864 -1.382,-1.685 0,-0.937 0.776,-1.682 1.712,-1.682 0.554,0 1.062,0.261 1.382,0.717 0.651,-0.492 1.558,-0.544 2.042,-0.552 0.074,-0.002 0.17,0 0.221,0 0.484,0.008 1.389,0.06 2.043,0.552 0.318,-0.456 0.826,-0.717 1.379,-0.717 0.937,0 1.712,0.745 1.712,1.682 0,0.821 -0.573,1.538 -1.38,1.685 0.454,-0.16 0.746,-0.598 0.746,-1.076 0,-0.627 -0.506,-1.132 -1.133,-1.132 -0.6,0 -1.095,0.477 -1.132,1.077 -0.184,-0.369 -0.914,-1.463 -2.346,-1.519 -1.433,0.056 -2.162,1.15 -2.347,1.519 -0.035,-0.6 -0.53,-1.077 -1.132,-1.077 -0.627,0 -1.131,0.505 -1.131,1.132 0,0.478 0.292,0.916 0.746,1.076"
           style="fill:#8d4823;fill-opacity:1;fill-rule:nonzero;stroke:none"
           id="path971"
           inkscape:connector-curvature="0" /><path
           d="m 302.028,315.646 c -1.887,0 -2.634,-1.711 -4.333,-2.844 0.944,0.378 1.687,1.122 3.009,1.877 1.322,0.756 2.449,-0.165 3.203,-0.165 h 0.028 c 0.753,0 1.88,0.921 3.203,0.165 1.322,-0.755 2.091,-1.499 3.036,-1.877 -1.699,1.133 -2.475,2.844 -4.362,2.844 -0.378,0 -1.124,-0.203 -1.877,-0.58 h -0.028 c -0.754,0.377 -1.501,0.58 -1.879,0.58"
           style="fill:#8d4823;fill-opacity:1;fill-rule:nonzero;stroke:none"
           id="path973"
           inkscape:connector-curvature="0" /><path
           d="m 301.394,313.411 c -0.747,-0.034 -1.732,-0.183 -3.148,-0.608 3.399,0.755 4.149,-0.386 5.66,-0.386 h 0.028 c 1.51,0 2.259,1.141 5.659,0.386 -3.776,1.134 -4.528,0.387 -5.659,0.387 h -0.028 c -0.709,0 -1.27,0.277 -2.512,0.221"
           style="fill:#8d4823;fill-opacity:1;fill-rule:nonzero;stroke:none"
           id="path975"
           inkscape:connector-curvature="0" /><path
           d="m 298.416,312.828 c -0.22,-0.002 -0.458,-0.005 -0.718,-0.028 3.966,-0.377 2.06,-2.65 6.212,-2.65 h 0.028 c 4.152,0 2.273,2.273 6.239,2.65 -4.153,0.377 -2.84,-2.071 -6.239,-2.071 h -0.028 c -3.187,0 -2.205,2.141 -5.494,2.099"
           style="fill:#8d4823;fill-opacity:1;fill-rule:nonzero;stroke:none"
           id="path977"
           inkscape:connector-curvature="0" /><path
           d="m 307.338,306.696 c 0,1.876 -1.521,3.399 -3.398,3.399 -1.875,0 -3.398,-1.523 -3.398,-3.399 0.374,1.575 1.783,2.686 3.398,2.686 1.621,0 3.026,-1.113 3.398,-2.686"
           style="fill:#8d4823;fill-opacity:1;fill-rule:nonzero;stroke:none"
           id="path979"
           inkscape:connector-curvature="0" /><path
           d="m 288.681,329.349 c 4.341,3.775 9.814,4.341 12.836,1.509 0.74,-0.99 1.213,-2.049 1.409,-3.152 0.378,-2.151 -0.293,-4.474 -1.978,-6.853 0.191,10e-4 0.569,-0.188 0.757,-0.378 1.499,2.866 2.029,5.81 1.538,8.61 -0.13,0.732 -0.33,1.451 -0.592,2.152 -4.153,3.397 -9.816,3.775 -13.967,-1.888 z"
           style="fill:#8d4823;fill-opacity:1;fill-rule:nonzero;stroke:none"
           id="path981"
           inkscape:connector-curvature="0" /><path
           d="m 295.475,330.479 c 2.452,0 3.019,-0.567 4.152,-1.51 1.134,-0.944 1.698,-0.754 1.888,-0.944 0.187,-0.189 0,-0.754 -0.376,-0.566 -0.378,0.189 -1.134,0.566 -2.265,1.51 -1.134,0.945 -2.265,0.944 -3.399,0.944 -3.398,0 -5.286,-2.831 -5.662,-2.642 -0.377,0.188 1.887,3.208 5.662,3.208"
           style="fill:#8d4823;fill-opacity:1;fill-rule:nonzero;stroke:none"
           id="path983"
           inkscape:connector-curvature="0" /><path
           d="m 295.33,328.926 c 1.632,0.03 3.155,-0.719 3.37,-1.463 -1.888,-2.076 -4.905,-1.895 -6.792,-0.386 0.825,1.321 2.155,1.826 3.422,1.849 m 0.028,0.387 c -1.676,0 -3.28,-0.726 -4.223,-2.236 1.887,-1.699 6.057,-1.883 8.889,0.194 -1.226,1.32 -2.99,2.042 -4.666,2.042"
           style="fill:#8b4928;fill-opacity:1;fill-rule:nonzero;stroke:none"
           id="path985"
           inkscape:connector-curvature="0" /><path
           d="m 295.58,329.166 c 0.938,0 1.699,-0.761 1.699,-1.699 0,-0.939 -0.761,-1.699 -1.699,-1.699 -0.939,0 -1.698,0.76 -1.698,1.699 0,0.938 0.759,1.699 1.698,1.699"
           style="fill:#8d4823;fill-opacity:1;fill-rule:nonzero;stroke:none"
           id="path987"
           inkscape:connector-curvature="0" /><path
           d="m 290.943,326.327 c 3.208,-2.454 6.418,-2.266 8.305,-1.133 1.887,1.133 1.887,1.509 1.51,1.509 -0.377,0 -0.753,-0.376 -2.264,-1.13 -1.511,-0.757 -3.775,-0.757 -7.55,0.754 z"
           style="fill:#8d4823;fill-opacity:1;fill-rule:nonzero;stroke:none"
           id="path989"
           inkscape:connector-curvature="0" /></g></g></g></svg>